/vscmnt/brussel_pixiu_data/_data_brussel/112/vsc11236/PredSimResults/SUBJ10opt3D/weighted-LRposFixed/trackIG/worker_04.mot
version=1
nRows=9
nColumns=50
inDegrees=yes
endheader
                time	         pelvis_tilt	         pelvis_list	     pelvis_rotation	           pelvis_tx	           pelvis_ty	           pelvis_tz	       hip_flexion_r	     hip_adduction_r	      hip_rotation_r	        knee_angle_r	       ankle_angle_r	         mtp_angle_r	       hip_flexion_l	     hip_adduction_l	      hip_rotation_l	        knee_angle_l	       ankle_angle_l	         mtp_angle_l	    lumbar_extension	      lumbar_bending	     lumbar_rotation	 ercspn_r/activation	 intobl_r/activation	 extobl_r/activation	    abd_r/activation	    add_r/activation	hamstrings_r/activation	bifemsh_r/activation	glut_max_r/activation	iliopsoas_r/activation	rect_fem_r/activation	  vasti_r/activation	gastroc_r/activation	 soleus_r/activation	tib_ant_r/activation	 ercspn_l/activation	 intobl_l/activation	 extobl_l/activation	    abd_l/activation	    add_l/activation	hamstrings_l/activation	bifemsh_l/activation	glut_max_l/activation	iliopsoas_l/activation	rect_fem_l/activation	  vasti_l/activation	gastroc_l/activation	 soleus_l/activation	tib_ant_l/activation	
          1.83915519	         -4.48520490	          1.12055537	         -6.53106234	          1.89432985	          0.82542633	          0.01426471	        -13.72694707	         -0.49128664	         -0.28583663	         -6.44908088	          9.81672345	         25.30480484	         30.04924903	         -1.22605788	         -5.15210070	         -5.82913672	          2.81348457	          0.25463874	         -5.86360013	          0.83540610	          6.78893212	          0.05493608	          0.00999999	          0.00999999	          0.07583824	          0.00999999	          0.01134987	          0.24446547	          0.02406521	          0.49544450	          0.00999999	          0.00999999	          0.33541995	          0.27532553	          0.02529476	          0.11730609	          0.16391055	          0.00999999	          0.00999999	          0.15309004	          0.12078793	          0.16702502	          0.02628895	          0.11220694	          0.00999999	          0.00999999	          0.00999999	          0.00999999	          0.27345306	
          1.85141623	         -4.53383358	          1.08335629	         -6.66646285	          1.90958834	          0.82376193	          0.01374896	        -13.85912006	         -0.61229550	         -0.64443937	         -8.05559122	          9.35165215	         26.96781890	         30.15799646	         -1.10018728	         -5.03148046	         -7.65192132	          2.51442107	          0.25200834	         -5.61265203	          0.33228225	          7.17087841	          0.09767215	          0.00999999	          0.00999999	          0.06297023	          0.01492227	          0.01586719	          0.20298531	          0.02446936	          0.44265325	          0.00999999	          0.00999999	          0.30857917	          0.26944128	          0.02100283	          0.10640480	          0.13609870	          0.00999999	          0.00999999	          0.21684014	          0.10210430	          0.13868477	          0.06394277	          0.09316801	          0.00999999	          0.00999999	          0.01450461	          0.01204350	          0.29463679	
          1.86367726	         -4.57017372	          1.07255457	         -6.77401445	          1.92526563	          0.82232477	          0.01315135	        -13.86138546	         -0.77836128	         -1.02394822	         -9.94680861	          8.72612563	         28.66840067	         30.05180628	         -0.97775121	         -4.81064811	         -9.30534330	          2.14381939	          0.24246136	         -5.32647035	         -0.20635874	          7.52831807	          0.11321734	          0.00999999	          0.00999999	          0.05228563	          0.01698421	          0.01679749	          0.16854337	          0.02031747	          0.36754519	          0.00999999	          0.00999999	          0.27296856	          0.25732717	          0.01743913	          0.08835035	          0.11300588	          0.00999999	          0.01329075	          0.18004736	          0.08629465	          0.11515316	          0.10227676	          0.07735954	          0.00999999	          0.00999999	          0.01204351	          0.00999999	          0.36347824	
          1.87593830	         -4.59613441	          1.07763977	         -6.84613296	          1.94116692	          0.82122738	          0.01240463	        -13.68854822	         -0.98162339	         -1.42677062	        -12.16524045	          7.89912653	         30.35901950	         29.78108293	         -0.83827220	         -4.66858601	        -10.68501631	          1.68024239	          0.23175019	         -5.02744326	         -0.75397405	          7.85439104	          0.12639732	          0.00999999	          0.00999999	          0.04341396	          0.01410238	          0.01394742	          0.13994544	          0.01687006	          0.30518123	          0.00999999	          0.00999999	          0.22665207	          0.23993611	          0.01448011	          0.10338919	          0.09383139	          0.00999999	          0.05527247	          0.17978175	          0.07473738	          0.09561432	          0.11342036	          0.06423341	          0.00999999	          0.00999999	          0.01000000	          0.00999999	          0.41243488	
          1.88819933	         -4.61256669	          1.08379199	         -6.88372640	          1.95709115	          0.82055866	          0.01152899	        -13.30277345	         -1.20652332	         -1.85566849	        -14.74169284	          6.85316484	         31.93235507	         29.44569134	         -0.69593962	         -4.62539645	        -11.97683017	          1.26375051	          0.22028502	         -4.73607894	         -1.29514797	          8.14251907	          0.15250364	          0.00999999	          0.00999999	          0.03604761	          0.02751682	          0.02204820	          0.11619992	          0.01400760	          0.25339900	          0.00999999	          0.00999999	          0.18819443	          0.21847251	          0.01202317	          0.10530855	          0.07791036	          0.00999999	          0.09384523	          0.20748404	          0.06696683	          0.07939077	          0.11607980	          0.05333448	          0.00999999	          0.01785265	          0.00999999	          0.00999999	          0.43807920	
          1.90046037	         -4.62072121	          1.09172098	         -6.88967066	          1.97287104	          0.82040017	          0.01054919	        -12.67350271	         -1.45498224	         -2.31632713	        -17.69328949	          5.60129970	         33.20340401	         29.09834363	         -0.55192624	         -4.65846643	        -13.26392933	          1.00078209	          0.20725563	         -4.46486329	         -1.83043744	          8.39036640	          0.17283909	          0.00999999	          0.00999999	          0.02993116	          0.10692199	          0.03092742	          0.09648347	          0.01163083	          0.21040302	          0.00999999	          0.00999999	          0.15626217	          0.18600589	          0.00999999	          0.09991745	          0.06469076	          0.00999999	          0.12000452	          0.22071214	          0.06578621	          0.06591998	          0.10884319	          0.04428484	          0.00999999	          0.06410677	          0.00999999	          0.00999999	          0.45353622	
          1.91272140	         -4.62322717	          1.09758935	         -6.86400329	          1.98837166	          0.82084796	          0.00949649	        -11.77672074	         -1.72406330	         -2.82761037	        -21.02425341	          4.18179972	         33.90015000	         28.71443832	         -0.40495014	         -4.73345698	        -14.49054315	          0.97750580	          0.19345336	         -4.22358531	         -2.35567914	          8.59609970	          0.18303199	          0.00999999	          0.00999999	          0.02485253	          0.17855928	          0.04414355	          0.08011245	          0.00999999	          0.17470247	          0.00999999	          0.00999999	          0.12974807	          0.15444497	          0.00999999	          0.09408706	          0.05371423	          0.00999999	          0.13580504	          0.23007336	          0.06639717	          0.05473488	          0.09652617	          0.03677072	          0.00999999	          0.10117484	          0.00999999	          0.00999999	          0.43541456	
          1.92498244	         -4.62251644	          1.09355873	         -6.80715944	          2.00351084	          0.82193659	          0.00840430	        -10.60390070	         -2.01237253	         -3.39980144	        -24.72429559	          2.64071146	         33.77389384	         28.24974174	         -0.25525087	         -4.80869405	        -15.58009885	          1.27465855	          0.19737227	         -4.01819246	         -2.86349539	          8.75860583	          0.18927467	          0.00999999	          0.00999999	          0.02063563	          0.24083325	          0.04687642	          0.06651922	          0.00999999	          0.14505948	          0.00999999	          0.00999999	          0.10773281	          0.12823921	          0.00999999	          0.08604033	          0.04460016	          0.00999999	          0.14563871	          0.22473065	          0.06909916	          0.04544763	          0.08059316	          0.03053158	          0.00999999	          0.13954448	          0.00999999	          0.00999999	          0.38160266	
          1.93724347	         -4.62098669	          1.06799989	         -6.71759311	          2.01824519	          0.82366405	          0.00730490	         -9.17354238	         -2.31353514	         -4.01456316	        -28.69915653	          0.85049364	         32.88104336	         27.64680015	         -0.10520358	         -4.84222037	        -16.41577281	          1.85761596	          0.25786815	         -3.85211333	         -3.34287638	          8.87582292	          0.18854780	          0.00999999	          0.00999999	          0.01713424	          0.29018237	          0.05780423	          0.05735342	          0.00999999	          0.12044622	          0.00999999	          0.00999999	          0.08945303	          0.10647997	          0.00999999	          0.07439965	          0.03703254	          0.00999999	          0.14521602	          0.20128802	          0.07223777	          0.03773621	          0.06691835	          0.02535107	          0.00999999	          0.16396850	          0.00999999	          0.00999999	          0.32022348	
